<?xml version="1.0" encoding="utf-8"?><svg version="1.1" id="Layer_1" xmlns="http://www.w3.org/2000/svg" xmlns:xlink="http://www.w3.org/1999/xlink" x="0px" y="0px" viewBox="0 0 61.55 122.88" style="enable-background:new 0 0 61.55 122.88" xml:space="preserve"><style type="text/css">.st0{fill-rule:evenodd;clip-rule:evenodd;}</style><g><path class="st0" d="M44.43,0C40.16,21.9,33.5,37.05,18.62,56.22C10.49,68.13,2.98,75.58,4.53,83.35 c2.05,10.31,12,9.64,19.83,11.65c5.93,1.53,10.51,4.23,13.17,8.63c1.37-2.49,1.03-4.89-1.19-7.19l-15.87-4.76 c-19.87-6.02-8.28-19.96,0.34-30.46C33.13,46.22,44.6,19.38,44.43,0L44.43,0z M26.65,108.39c0.6-0.66,1.61-0.7,2.27-0.11 c0.66,0.6,0.7,1.61,0.11,2.27c-0.91,1-0.97,2.04-1.05,3.26c-0.14,2.13-0.3,4.66-3.14,8.35c-0.54,0.7-1.55,0.83-2.25,0.29 c-0.7-0.54-0.83-1.55-0.29-2.25c2.24-2.9,2.37-4.9,2.47-6.58C24.88,111.77,24.98,110.21,26.65,108.39L26.65,108.39z M4.69,100.61 c0.6-0.66,1.61-0.7,2.27-0.11c0.66,0.6,0.7,1.61,0.11,2.27c-0.91,1-0.97,2.04-1.05,3.26c-0.14,2.13-0.3,4.66-3.14,8.35 c-0.54,0.7-1.55,0.83-2.25,0.29c-0.7-0.54-0.83-1.55-0.29-2.25c2.24-2.9,2.37-4.9,2.47-6.58C2.93,103.99,3.03,102.43,4.69,100.61 L4.69,100.61z M12.74,122.33c-0.58,0.67-1.6,0.74-2.27,0.16c-0.67-0.58-0.74-1.6-0.16-2.27c2.08-2.39,2.3-4.92,2.53-7.54 c0.32-3.72,0.66-7.58,5.09-11.85c0.64-0.61,1.66-0.6,2.27,0.04c0.61,0.64,0.59,1.66-0.04,2.27c-3.55,3.43-3.84,6.68-4.11,9.81 C15.77,116.1,15.5,119.15,12.74,122.33L12.74,122.33z M25.3,84.52c-5.6-0.05-7.12-0.83-5.8-2.83c1.53-0.74,3.31-1.23,5.52-1.3 c4.97-0.14,8.65,1.52,12.87,3.92c6.58,3.74,14.11,11.81,19.13,6.74c2.72-2.75,3.18-6.45,1.58-9.94c-0.79-1.72-2.05-3.28-3.62-4.74 c8.29,4.1,9.29,16.45-0.15,18.64c-1.25,0.29-2.62,0.23-4.11-0.23l-2.86-1.32c-4.32-2.02-7.06-4.02-11.01-6.14 C32.09,84.79,30.38,84.57,25.3,84.52L25.3,84.52L25.3,84.52z"/></g></svg>